# xmcd CD database file
# Copyright (C) 1993-1998 Ti Kan
#
# Track frame offsets:
#	150
#	15777
#	31592
#	46175
#	62005
#	77327
#	91722
#	106005
#	134960
#	148530
#	162860
#	178560
#	194537
#	208547
#	221960
#	236312
#
# Disc length: 3345 seconds
#
# Revision: 1
# Processed by: cddbd v1.4b41PL1 Copyright (c) Steve Scherf et al.
# Submitted via: NotifyCDPlayer(CDDB) 1.51.3
#
DISCID=c70d0f10
DTITLE=Bessie Smith - Empress of the Blues
DYEAR=1900
DGENRE=
TTITLE0=Downhearted Blues
TTITLE1=T'ain't Nobody's Business If I Do
TTITLE2=St Louis Blues
TTITLE3=You've Been a Good Ole Wagon
TTITLE4=I Ain't Gonna Play No Second Fiddle
TTITLE5=Young Woman's Blues
TTITLE6=Muddy Water
TTITLE7=Empty Bed Blues
TTITLE8=Nobody Knows You When You're Down
TTITLE9=Black Mountain Blues
TTITLE10=Do Your Duty
TTITLE11=Gimme A Pigfoot
TTITLE12=Surf Coast Blues
TTITLE13=Baby, Won't you Please Come Home
TTITLE14=Easy Come, Easy Go Blues
TTITLE15=Rockin' Chair Blues
EXTD=Good ol' cotton blues!
EXTT0=
EXTT1=
EXTT2=
EXTT3=
EXTT4=
EXTT5=
EXTT6=
EXTT7=
EXTT8=
EXTT9=
EXTT10=
EXTT11=
EXTT12=
EXTT13=
EXTT14=
EXTT15=
PLAYORDER=
